<?xml version="1.0" standalone="no"?>
<!DOCTYPE svg PUBLIC "-//W3C//DTD SVG 20010904//EN"
 "http://www.w3.org/TR/2001/REC-SVG-20010904/DTD/svg10.dtd">
<svg version="1.0" xmlns="http://www.w3.org/2000/svg"
 width="2156.000000pt" height="2156.000000pt" viewBox="0 0 2156.000000 2156.000000"
 preserveAspectRatio="xMidYMid meet">
<metadata>
Created by potrace 1.14, written by Peter Selinger 2001-2017
</metadata>
<g transform="translate(0.000000,2156.000000) scale(0.100000,-0.100000)"
fill="#000000" stroke="none">
<path d="M17215 17879 c-633 -55 -1157 -386 -1412 -892 -55 -111 -115 -290
-142 -422 -106 -532 13 -1209 302 -1710 159 -277 392 -549 640 -749 26 -21 46
-40 45 -41 -2 -2 -41 6 -88 17 -50 11 -142 21 -225 25 -122 5 -151 3 -224 -16
-97 -24 -150 -53 -211 -113 -124 -123 -133 -299 -20 -388 181 -143 628 -136
957 15 l73 34 -14 -32 c-8 -18 -52 -122 -100 -232 -47 -109 -86 -205 -86 -212
0 -10 45 -13 209 -13 l209 0 6 -47 c37 -257 196 -550 379 -695 l49 -38 141 5
c77 3 142 6 144 8 1 2 -28 25 -67 51 -144 99 -284 260 -364 422 -40 81 -96
244 -96 280 0 12 64 14 390 14 215 0 390 2 390 5 0 3 -61 127 -135 275 -74
148 -135 273 -135 276 0 3 8 3 18 -1 241 -99 446 -159 603 -177 232 -26 387
48 435 208 19 63 18 179 -2 237 -23 67 -91 138 -161 170 -99 44 -271 56 -421
30 -30 -5 -19 9 121 148 359 359 595 783 721 1290 123 498 111 877 -40 1249
-124 305 -370 577 -690 761 -342 197 -789 293 -1199 258z m390 -179 c657 -75
1175 -449 1364 -983 62 -175 75 -268 75 -512 0 -197 -3 -234 -27 -355 -57
-288 -125 -495 -242 -735 -195 -399 -483 -727 -845 -965 -103 -67 -265 -152
-345 -180 -27 -10 -77 -31 -110 -46 l-60 -28 76 -35 76 -35 122 -244 c67 -135
120 -246 118 -248 -2 -2 -191 -3 -420 -2 l-416 3 120 279 c96 224 117 282 107
291 -7 6 -66 44 -132 85 -602 371 -1005 882 -1172 1490 -124 446 -124 910 -2
1259 151 433 477 738 950 890 91 29 271 66 363 74 89 8 315 6 400 -3z m1039
-3715 c79 -40 106 -122 68 -207 -17 -38 -27 -48 -66 -63 -66 -25 -216 -16
-361 24 -107 28 -330 107 -383 135 -25 13 -24 14 39 34 94 31 220 62 334 83
136 25 314 22 369 -6z m-2129 -74 c89 -19 298 -83 323 -99 19 -13 -150 -88
-250 -112 -192 -45 -386 -50 -508 -14 -96 29 -119 54 -96 107 28 67 106 119
205 137 65 13 220 3 326 -19z"/>
<path d="M2068 12350 c-291 -35 -523 -226 -625 -515 l-28 -80 -3 -1510 c-3
-1652 -5 -1587 55 -1729 71 -170 218 -320 388 -395 115 -51 191 -61 469 -61
l258 0 -6 24 c-18 74 -24 165 -15 245 12 103 65 269 120 369 21 41 39 75 39
77 0 3 -51 30 -112 61 -258 128 -396 274 -414 434 -8 71 15 166 59 239 69 116
230 263 395 361 39 24 72 44 72 45 0 2 -11 31 -24 66 -123 329 28 621 406 787
269 118 500 133 697 46 118 -53 252 -173 328 -296 l35 -57 82 44 c195 104 349
119 491 47 53 -26 159 -127 170 -161 3 -12 9 -21 13 -21 4 0 42 26 84 58 289
216 656 269 1069 153 223 -63 466 -180 692 -333 l58 -39 -3 763 c-4 761 -4
763 -27 838 -40 134 -95 225 -196 326 -76 76 -104 97 -185 136 -187 91 39 82
-2250 84 -1114 1 -2055 -2 -2092 -6z"/>
<path d="M15347 12344 c-220 -48 -414 -198 -512 -397 -87 -177 -80 -28 -80
-1742 0 -1717 -7 -1565 82 -1745 39 -79 62 -110 138 -186 76 -77 105 -98 185
-137 105 -52 175 -72 277 -82 66 -7 75 -4 268 63 436 151 779 293 1140 472
576 285 994 566 1334 895 316 307 497 589 578 903 24 94 27 126 28 262 0 169
-12 243 -67 400 -145 413 -535 866 -1063 1233 l-110 77 -1065 -1 c-896 -1
-1076 -3 -1133 -15z"/>
<path d="M17945 12337 c272 -203 545 -468 714 -692 473 -626 501 -1255 83
-1895 -244 -373 -638 -722 -1217 -1077 -361 -221 -959 -521 -1185 -594 l-75
-24 200 -3 c110 -1 844 -1 1630 0 l1430 3 75 23 c226 70 386 205 480 407 74
158 70 53 70 1720 0 1668 4 1562 -70 1720 -75 160 -192 281 -345 355 -158 77
-114 74 -1015 77 l-805 3 30 -23z"/>
<path d="M3495 10649 c-217 -28 -438 -125 -535 -235 -43 -49 -79 -130 -87
-192 -11 -98 43 -237 133 -340 l46 -52 -39 -16 c-85 -35 -262 -129 -342 -181
-147 -96 -261 -231 -261 -311 0 -119 223 -278 545 -387 61 -21 111 -39 113
-40 2 -1 -30 -52 -70 -111 -93 -139 -139 -227 -180 -345 -28 -83 -32 -107 -32
-199 0 -79 4 -114 17 -142 l17 -38 1666 0 c1856 0 1743 -4 1899 69 187 88 320
235 389 428 32 91 53 244 38 277 -7 16 -7 27 -1 33 7 7 8 196 3 547 l-7 537
-78 60 c-275 209 -568 354 -834 411 -34 7 -126 13 -210 13 -170 0 -259 -18
-392 -80 -164 -76 -338 -231 -418 -374 -22 -39 -43 -71 -46 -71 -3 0 -12 39
-19 88 -36 248 -132 392 -262 392 -27 0 -73 -9 -104 -19 -76 -27 -214 -121
-306 -209 -50 -48 -79 -69 -82 -61 -2 8 -16 55 -31 104 -60 199 -164 339 -305
410 -36 18 -127 46 -145 44 -5 -1 -41 -6 -80 -10z"/>
<path d="M6834 10161 c3 -18 6 -73 6 -121 l0 -87 42 -28 c62 -41 171 -156 212
-223 148 -243 92 -487 -169 -749 l-94 -93 48 -24 c88 -45 164 -150 191 -265
28 -117 -6 -305 -82 -456 -168 -335 -480 -553 -865 -605 -144 -20 -408 -9
-570 24 -251 51 -496 137 -755 266 -79 40 -148 76 -154 81 -7 5 -21 -3 -40
-22 -49 -52 -217 -174 -306 -222 -130 -72 -253 -109 -378 -115 -125 -6 -188 6
-285 53 -125 61 -252 189 -326 329 -18 34 -33 62 -34 64 -1 1 -31 -5 -65 -14
-46 -11 -93 -15 -164 -12 -109 4 -158 22 -205 72 -23 25 -30 26 -123 26 -54 0
-98 -2 -98 -5 0 -3 11 -27 24 -53 74 -145 269 -235 468 -219 l68 6 32 -47 c79
-116 218 -237 346 -301 170 -86 403 -94 622 -22 105 35 278 126 382 201 l98
70 47 -24 c175 -88 484 -203 675 -252 352 -89 687 -90 978 -3 340 100 609 320
775 631 151 283 153 566 8 781 l-49 72 67 84 c161 199 225 427 174 626 -44
174 -182 357 -380 504 -33 25 -75 59 -94 75 l-34 31 7 -34z"/>
<path d="M4410 7349 c-70 -14 -180 -73 -233 -125 -26 -27 -60 -73 -75 -104
-23 -47 -27 -68 -27 -140 0 -73 4 -93 28 -141 51 -106 169 -193 299 -224 318
-75 627 151 577 422 -15 77 -41 127 -103 188 -109 109 -292 158 -466 124z
m250 -154 c110 -39 180 -121 180 -209 0 -196 -276 -310 -490 -201 -82 42 -140
123 -140 195 0 97 100 197 227 230 51 13 168 5 223 -15z"/>
<path d="M3522 6969 c-223 -43 -355 -264 -267 -445 30 -62 69 -97 145 -133 50
-24 66 -26 181 -26 125 0 125 0 201 38 95 46 152 107 174 185 67 229 -167 434
-434 381z m168 -135 c126 -37 180 -158 116 -256 -55 -84 -269 -119 -369 -60
-130 75 -87 257 75 313 66 23 109 24 178 3z"/>
<path d="M2655 6676 c-141 -35 -208 -111 -209 -237 0 -160 126 -246 348 -237
148 6 229 48 278 142 30 58 23 168 -14 224 -65 97 -248 146 -403 108z m219
-127 c115 -32 131 -151 27 -201 -65 -32 -206 -31 -268 0 -49 25 -63 47 -63 96
0 44 32 82 85 101 48 17 165 19 219 4z"/>
<path d="M1987 6460 c-89 -23 -145 -67 -167 -136 -26 -79 28 -169 121 -199
110 -37 270 -4 320 66 23 33 35 94 25 133 -9 38 -66 97 -111 117 -50 22 -139
31 -188 19z"/>
</g>
</svg>
