<svg xmlns="http://www.w3.org/2000/svg" xmlns:xlink="http://www.w3.org/1999/xlink" xml:space="preserve" width="469.8" height="417.5"><defs><linearGradient xlink:href="#a" id="L" x1="126.5" x2="318.5" y1="226" y2="226" gradientUnits="userSpaceOnUse"/><linearGradient id="a"><stop offset="0" stop-color="#fff"/></linearGradient><linearGradient id="d"><stop offset="0" stop-color="#368ec0"/></linearGradient><linearGradient id="c"><stop offset="0" stop-color="#f5b838"/></linearGradient><linearGradient id="b"><stop offset="0" stop-color="#ca3c16"/></linearGradient><linearGradient xlink:href="#a" id="aN" x1="258.6" x2="295.2" y1="48.6" y2="48.6" gradientUnits="userSpaceOnUse"/><linearGradient xlink:href="#a" id="e" x1="-501" x2="-93.5" y1="-1137.4" y2="-1137.4" gradientUnits="userSpaceOnUse"/><linearGradient xlink:href="#a" id="aC" x1="27.3" x2="103.3" y1="90.5" y2="90.5" gradientUnits="userSpaceOnUse"/><linearGradient xlink:href="#b" id="f" x1="257.5" x2="320" y1="142.9" y2="142.9" gradientUnits="userSpaceOnUse"/><linearGradient xlink:href="#b" id="g" x1="233.6" x2="298.2" y1="142.9" y2="142.9" gradientUnits="userSpaceOnUse"/><linearGradient xlink:href="#b" id="h" x1="247.5" x2="305.2" y1="57.8" y2="57.8" gradientUnits="userSpaceOnUse"/><linearGradient xlink:href="#b" id="i" x1="271.6" x2="283" y1="101.9" y2="101.9" gradientUnits="userSpaceOnUse"/><linearGradient xlink:href="#c" id="j" x1="168.7" x2="171.5" y1="68.9" y2="68.9" gradientUnits="userSpaceOnUse"/><linearGradient xlink:href="#c" id="k" x1="133.2" x2="136.1" y1="92.9" y2="92.9" gradientUnits="userSpaceOnUse"/><linearGradient xlink:href="#c" id="l" x1="140.8" x2="143.6" y1="81.6" y2="81.6" gradientUnits="userSpaceOnUse"/><linearGradient xlink:href="#c" id="m" x1="148.8" x2="160.7" y1="72.6" y2="72.6" gradientUnits="userSpaceOnUse"/><linearGradient xlink:href="#c" id="n" x1="194.5" x2="216.6" y1="92.9" y2="92.9" gradientUnits="userSpaceOnUse"/><linearGradient xlink:href="#c" id="o" x1="186.2" x2="209.9" y1="81.6" y2="81.6" gradientUnits="userSpaceOnUse"/><linearGradient xlink:href="#c" id="p" x1="173.7" x2="197.3" y1="72.6" y2="72.6" gradientUnits="userSpaceOnUse"/><linearGradient xlink:href="#c" id="q" x1="126.8" x2="213.4" y1="142.9" y2="142.9" gradientUnits="userSpaceOnUse"/><linearGradient xlink:href="#d" id="r" x1="20" x2="106.6" y1="142.8" y2="142.8" gradientUnits="userSpaceOnUse"/><linearGradient xlink:href="#d" id="s" x1="62.5" x2="77.3" y1="194.5" y2="194.5" gradientUnits="userSpaceOnUse"/><linearGradient xlink:href="#d" id="t" x1="49.1" x2="61.1" y1="199.5" y2="199.5" gradientUnits="userSpaceOnUse"/><linearGradient xlink:href="#d" id="u" x1="36" x2="106.6" y1="156.4" y2="156.4" gradientUnits="userSpaceOnUse"/><linearGradient xlink:href="#d" id="v" x1="39.4" x2="115.2" y1="166.3" y2="166.3" gradientUnits="userSpaceOnUse"/><linearGradient xlink:href="#d" id="w" x1="36.5" x2="47.1" y1="203.1" y2="203.1" gradientUnits="userSpaceOnUse"/><linearGradient xlink:href="#a" id="A" x1="126.5" x2="318.5" y1="226" y2="226" gradientUnits="userSpaceOnUse"/><linearGradient xlink:href="#a" id="B" x1="126.5" x2="318.5" y1="226" y2="226" gradientUnits="userSpaceOnUse"/><linearGradient xlink:href="#a" id="z" x1="126.5" x2="318.5" y1="226" y2="226" gradientUnits="userSpaceOnUse"/><linearGradient xlink:href="#a" id="C" x1="126.5" x2="318.5" y1="226" y2="226" gradientUnits="userSpaceOnUse"/><linearGradient xlink:href="#a" id="D" x1="126.5" x2="318.5" y1="226" y2="226" gradientUnits="userSpaceOnUse"/><linearGradient xlink:href="#a" id="E" x1="126.5" x2="318.5" y1="226" y2="226" gradientUnits="userSpaceOnUse"/><linearGradient xlink:href="#a" id="F" x1="126.5" x2="318.5" y1="226" y2="226" gradientUnits="userSpaceOnUse"/><linearGradient xlink:href="#a" id="G" x1="126.5" x2="318.5" y1="226" y2="226" gradientUnits="userSpaceOnUse"/><linearGradient xlink:href="#a" id="H" x1="126.5" x2="318.5" y1="226" y2="226" gradientUnits="userSpaceOnUse"/><linearGradient xlink:href="#a" id="I" x1="126.5" x2="318.5" y1="226" y2="226" gradientUnits="userSpaceOnUse"/><linearGradient xlink:href="#a" id="J" x1="126.5" x2="318.5" y1="226" y2="226" gradientUnits="userSpaceOnUse"/><linearGradient xlink:href="#a" id="K" x1="126.5" x2="318.5" y1="226" y2="226" gradientUnits="userSpaceOnUse"/><linearGradient xlink:href="#a" id="M" x1="126.5" x2="318.5" y1="226" y2="226" gradientUnits="userSpaceOnUse"/><linearGradient xlink:href="#a" id="N" x1="126.5" x2="318.5" y1="226" y2="226" gradientUnits="userSpaceOnUse"/><linearGradient xlink:href="#a" id="y" x1="126.5" x2="318.5" y1="226" y2="226" gradientUnits="userSpaceOnUse"/><linearGradient xlink:href="#a" id="P" x1="126.5" x2="318.5" y1="226" y2="226" gradientUnits="userSpaceOnUse"/><linearGradient xlink:href="#a" id="Q" x1="126.5" x2="318.5" y1="226" y2="226" gradientUnits="userSpaceOnUse"/><linearGradient xlink:href="#a" id="R" x1="126.5" x2="318.5" y1="226" y2="226" gradientUnits="userSpaceOnUse"/><linearGradient xlink:href="#a" id="S" x1="126.5" x2="318.5" y1="226" y2="226" gradientUnits="userSpaceOnUse"/><linearGradient xlink:href="#a" id="T" x1="126.5" x2="318.5" y1="226" y2="226" gradientUnits="userSpaceOnUse"/><linearGradient xlink:href="#a" id="U" x1="126.5" x2="318.5" y1="226" y2="226" gradientUnits="userSpaceOnUse"/><linearGradient xlink:href="#a" id="V" x1="126.5" x2="318.5" y1="226" y2="226" gradientUnits="userSpaceOnUse"/><linearGradient xlink:href="#a" id="O" x1="126.5" x2="318.5" y1="226" y2="226" gradientUnits="userSpaceOnUse"/><linearGradient xlink:href="#a" id="X" x1="126.5" x2="318.5" y1="226" y2="226" gradientUnits="userSpaceOnUse"/><linearGradient xlink:href="#a" id="Y" x1="126.5" x2="318.5" y1="226" y2="226" gradientUnits="userSpaceOnUse"/><linearGradient xlink:href="#a" id="Z" x1="126.5" x2="318.5" y1="226" y2="226" gradientUnits="userSpaceOnUse"/><linearGradient xlink:href="#a" id="aa" x1="126.5" x2="318.5" y1="226" y2="226" gradientUnits="userSpaceOnUse"/><linearGradient xlink:href="#a" id="ab" x1="126.5" x2="318.5" y1="226" y2="226" gradientUnits="userSpaceOnUse"/><linearGradient xlink:href="#a" id="ac" x1="126.5" x2="318.5" y1="226" y2="226" gradientUnits="userSpaceOnUse"/><linearGradient xlink:href="#a" id="ad" x1="126.5" x2="318.5" y1="226" y2="226" gradientUnits="userSpaceOnUse"/><linearGradient xlink:href="#a" id="ae" x1="126.5" x2="318.5" y1="226" y2="226" gradientUnits="userSpaceOnUse"/><linearGradient xlink:href="#a" id="af" x1="126.5" x2="318.5" y1="226" y2="226" gradientUnits="userSpaceOnUse"/><linearGradient xlink:href="#a" id="ah" x1="126.5" x2="318.5" y1="226" y2="226" gradientUnits="userSpaceOnUse"/><linearGradient xlink:href="#a" id="ai" x1="126.5" x2="318.5" y1="226" y2="226" gradientUnits="userSpaceOnUse"/><linearGradient xlink:href="#a" id="ag" x1="126.5" x2="318.5" y1="226" y2="226" gradientUnits="userSpaceOnUse"/><linearGradient xlink:href="#a" id="W" x1="126.5" x2="318.5" y1="226" y2="226" gradientUnits="userSpaceOnUse"/><linearGradient xlink:href="#a" id="ak" x1="126.5" x2="318.5" y1="226" y2="226" gradientUnits="userSpaceOnUse"/><linearGradient xlink:href="#a" id="al" x1="126.5" x2="318.5" y1="226" y2="226" gradientUnits="userSpaceOnUse"/><linearGradient xlink:href="#a" id="am" x1="126.5" x2="318.5" y1="226" y2="226" gradientUnits="userSpaceOnUse"/><linearGradient xlink:href="#a" id="an" x1="126.5" x2="318.5" y1="226" y2="226" gradientUnits="userSpaceOnUse"/><linearGradient xlink:href="#a" id="ao" x1="126.5" x2="318.5" y1="226" y2="226" gradientUnits="userSpaceOnUse"/><linearGradient xlink:href="#a" id="ap" x1="126.5" x2="318.5" y1="226" y2="226" gradientUnits="userSpaceOnUse"/><linearGradient xlink:href="#a" id="aq" x1="126.5" x2="318.5" y1="226" y2="226" gradientUnits="userSpaceOnUse"/><linearGradient xlink:href="#a" id="ar" x1="126.5" x2="318.5" y1="226" y2="226" gradientUnits="userSpaceOnUse"/><linearGradient xlink:href="#a" id="as" x1="126.5" x2="318.5" y1="226" y2="226" gradientUnits="userSpaceOnUse"/><linearGradient xlink:href="#a" id="at" x1="126.5" x2="318.5" y1="226" y2="226" gradientUnits="userSpaceOnUse"/><linearGradient xlink:href="#a" id="av" x1="126.5" x2="318.5" y1="226" y2="226" gradientUnits="userSpaceOnUse"/><linearGradient xlink:href="#a" id="aw" x1="126.5" x2="318.5" y1="226" y2="226" gradientUnits="userSpaceOnUse"/><linearGradient xlink:href="#a" id="au" x1="126.5" x2="318.5" y1="226" y2="226" gradientUnits="userSpaceOnUse"/><linearGradient xlink:href="#a" id="aj" x1="126.5" x2="318.5" y1="226" y2="226" gradientUnits="userSpaceOnUse"/><linearGradient xlink:href="#a" id="x" x1="126.5" x2="318.5" y1="226" y2="226" gradientUnits="userSpaceOnUse"/><linearGradient xlink:href="#d" id="ax" x1="28" x2="32.7" y1="226.1" y2="226.1" gradientUnits="userSpaceOnUse"/><linearGradient xlink:href="#d" id="ay" x1="36.8" x2="60.5" y1="226" y2="226" gradientUnits="userSpaceOnUse"/><linearGradient xlink:href="#d" id="az" x1="64.8" x2="89.3" y1="230.9" y2="230.9" gradientUnits="userSpaceOnUse"/><linearGradient xlink:href="#d" id="aA" x1="92.8" x2="116.6" y1="226" y2="226" gradientUnits="userSpaceOnUse"/><linearGradient xlink:href="#d" id="aB" x1="26.4" x2="34.2" y1="205.6" y2="205.6" gradientUnits="userSpaceOnUse"/><linearGradient xlink:href="#a" id="aD" x1="27.3" x2="103.3" y1="90.5" y2="90.5" gradientUnits="userSpaceOnUse"/><linearGradient xlink:href="#a" id="aE" x1="27.3" x2="103.3" y1="90.5" y2="90.5" gradientUnits="userSpaceOnUse"/><linearGradient xlink:href="#a" id="aF" x1="27.3" x2="103.3" y1="90.5" y2="90.5" gradientUnits="userSpaceOnUse"/><linearGradient xlink:href="#a" id="aG" x1="27.3" x2="103.3" y1="90.5" y2="90.5" gradientUnits="userSpaceOnUse"/><linearGradient xlink:href="#a" id="aH" x1="27.3" x2="103.3" y1="90.5" y2="90.5" gradientUnits="userSpaceOnUse"/><linearGradient xlink:href="#a" id="aI" x1="27.3" x2="103.3" y1="90.5" y2="90.5" gradientUnits="userSpaceOnUse"/><linearGradient xlink:href="#a" id="aJ" x1="27.3" x2="103.3" y1="90.5" y2="90.5" gradientUnits="userSpaceOnUse"/><linearGradient xlink:href="#a" id="aK" x1="27.3" x2="103.3" y1="90.5" y2="90.5" gradientUnits="userSpaceOnUse"/><linearGradient xlink:href="#a" id="aL" x1="27.3" x2="103.3" y1="90.5" y2="90.5" gradientUnits="userSpaceOnUse"/><linearGradient xlink:href="#a" id="aM" x1="27.3" x2="103.3" y1="90.5" y2="90.5" gradientUnits="userSpaceOnUse"/><linearGradient xlink:href="#a" id="aO" x1="259.6" x2="294.1" y1="48" y2="48" gradientUnits="userSpaceOnUse"/></defs><text xml:space="preserve" x="-504.3" y="-1100.3" fill="url(#e)" stroke-width=".6" font-family="Arial" font-size="28.4" font-weight="400" letter-spacing="0" style="line-height:15.7806px;-inkscape-font-specification:Arial" transform="matrix(.735 0 0 .735 368.8 924.3)" word-spacing="0"><tspan x="-504.3" y="-1100.3" font-size="143.1" font-weight="700" letter-spacing="2.2">swerc</tspan></text><path fill="#6082c0" d="M136 251v.6l.3.3v-.6z"/><path fill="#6082c0" d="M136 250.4v.7l.3.2v-.6z"/><path fill="url(#f)" d="M308.1 108.4h-23.9c10.5 7.9 16.5 16 17.7 24.3a26 26 0 0 1-6.1 19.8l-.2.3c-9.2 11.6-27.9 20.5-35.5 23.7l-2.6.8h50.6a12 12 0 0 0 11.9-12v-45a12 12 0 0 0-11.9-11.9z" transform="translate(-31.3 26.5) scale(1.566)"/><path fill="#993022" d="M353.1 196.3a18.7 18.7 0 0 0-18.6 18.7v70.4c0 10.3 8.3 18.7 18.6 18.7h.3l2.1-.7c47.8-15.8 78.5-39.8 80-62.6 1.6-22.9-26.9-41.8-30.1-43.8l-1-.7h-51.3z"/><path fill="url(#g)" d="M298.1 136.9c-1 14.5-20.6 29.8-51 40l-1.4.4h-.2a12 12 0 0 1-12-12v-45a12 12 0 0 1 12-11.9h32.8l.5.5c2.1 1.3 20.3 13.4 19.3 28z" transform="translate(-31.3 26.5) scale(1.566)"/><path fill="url(#h)" d="M304.7 52.4c.3-1.9.5-3.8.5-5.7a25 25 0 0 0-11.5-21.6 32.9 32.9 0 0 0-34.5-.5 26 26 0 0 0-11.7 23A42.8 42.8 0 0 0 264 81.4c-4.5-1.3-10.5-1.9-13 2.3-1.3 2-1 4 .8 5.3 3.3 2.4 11.3 1.8 16.2-1l-3.3 7.8h22.4l-4.5-9c5.4 2.3 11.7 4.3 15 2.3 1.5-.9 2.2-2.2 2.3-4.1.1-2.5-1-3.8-2-4.5-1.7-1.2-4.5-1.5-8.3-1l1.1-.9a44 44 0 0 0 14-26zm-51.2 34.3c-.3-.3-.7-.6 0-1.6 1.9-3.2 8.4-2 13.6.1-4 2.7-11.5 3-13.6 1.5zm42.9-4c.4.3.8.8.8 2 0 1-.3 1.5-.9 1.9-1.3.7-4.6.9-12.8-2.6 5-1.7 10.8-2.8 12.9-1.3zm-16.5-.4-.7.3-1 .3-.5.2-1.6.7 2.5 1.2 4 7.9H269l3.8-9.1-1.4-.9a40.4 40.4 0 0 1-20.7-29 39.4 39.4 0 0 1-.5-6.2c0-9.1 3.6-16.3 10.4-20.7a30 30 0 0 1 31.4.5 22.1 22.1 0 0 1 10.3 19.3 31.3 31.3 0 0 1-.5 5.2c-3.6 21.4-19 29-22 30.3z" transform="translate(-31.3 26.5) scale(1.566)"/><path fill="url(#i)" d="m283 107.9-.2-.2c-.9-.5-6.9-4.2-8.2-12h-3a18 18 0 0 0 6.2 12l.2.2h.5l.3.3h4.1l-.4-.3z" transform="translate(-31.3 26.5) scale(1.566)"/><path fill="#993022" d="M404.8 195.4h-.7l.5.5h.8l-.5-.4zm6.9.5h.8l-.6-.5h-.8z"/><path fill="#ecb941" d="m231 204.5 20 5.6-17.8 7.3 14 4-9.7 8v21.5h8.2l2.9-20.2.3-.1a37 37 0 0 0 23-33.6v-.7h-32.5l-.6.7z"/><path fill="#ecb941" d="m219.4 218.3 17.4-7-15-4.7 10.6-9.6.7-.7h-34.7v.7c.2 4.3 1 25.7 22.4 33.7l.4.2v.4l2.5 19.6h9v-23.6l4.9-4z"/><path fill="url(#j)" d="M168.7 56.8h2.8V81h-2.8z" transform="translate(-31.3 26.5) scale(1.566)"/><path fill="url(#k)" d="M133.2 81.8h2.9V104h-2.9z" transform="matrix(.7 -1.4 1.4 .7 -44.8 295.5)"/><path fill="url(#l)" d="M140.8 69.7h2.8v23.7h-2.8z" transform="rotate(-48.4 236.5 175.8) scale(1.566)"/><path fill="url(#m)" d="m151.6 61.6-.2-.4-2.6 1.1 9.1 21.3.2.4 2.6-1.1z" transform="translate(-31.3 26.5) scale(1.566)"/><path fill="url(#n)" d="M194.5 91.4h22.1v2.9h-22z" transform="matrix(1.4 -.7 .7 1.4 -62.4 185.8)"/><path fill="url(#o)" d="M186.2 80.2h23.7V83h-23.7z" transform="rotate(-41.6 329.2 182.2) scale(1.566)"/><path fill="url(#p)" d="M173.7 71.2h23.6V74h-23.6z" transform="rotate(-66.6 295 150.8) scale(1.566)"/><path fill="url(#q)" d="M213.4 165.5v-45a12 12 0 0 0-11.9-12h-4.3v.4a26.8 26.8 0 0 1-8 19 20 20 0 0 1-7.5 4.8l-2 13.9h-19.5l-1.7-13.8c-14.7-5.6-15.3-21-15.5-24.1v-.3h-4.3a12 12 0 0 0-11.9 12v45c0 6 4.5 11 10.2 11.9h66.2a12 12 0 0 0 10.2-11.8zm-53-15.7h19.4v2.9h-19.4zm0 5.5h19.4v2.9h-19.4zm13.4 13.8H166v-2.8h7.7zm6-5.4h-19.4v-2.9H180z" transform="translate(-31.3 26.5) scale(1.566)"/><path fill="url(#r)" d="M41.2 165.7c-5.6-2.3-8.5-5-8.6-8.2-.2-4.8 6.2-8.7 8.5-10a9.5 9.5 0 0 1-.5-7.6c1.6-4.2 6.3-6 6.5-6 2.4-1.1 4.7-1.7 6.8-1.7 1.4 0 2.8.3 4 .8 3.6 1.5 5.4 4.4 6.2 5.9a12 12 0 0 1 6.2-2.3c.7 0 1.4.1 2 .3a7 7 0 0 1 4 3.5 17 17 0 0 1 11.8-4.5c8.4 0 16.3 5.3 18.5 7v-22.5a12 12 0 0 0-11.9-12H31.9a12 12 0 0 0-11.9 12v44.9a12 12 0 0 0 12 12h7l-.1-.2c-1.6-4.4 1.1-9.6 2.3-11.4z" transform="translate(-31.3 26.5) scale(1.566)"/><path fill="url(#s)" d="M70 188.3c-4.1 0-7.4 2.8-7.4 6.2s3.3 6 7.3 6 7.4-2.7 7.4-6-3.3-6.2-7.4-6.2zm0 10c-2.8 0-5-1.8-5-3.8 0-2.1 2.2-3.8 5-3.8 2.7 0 5 1.7 5 3.8 0 2-2.3 3.7-5 3.7z" transform="translate(-31.3 26.5) scale(1.566)"/><path fill="url(#t)" d="M54.5 194.5c-3.3.3-5.7 3-5.4 5.8.3 2.7 3 4.5 6.4 4.1 3.5-.3 5.8-2.6 5.5-5.3-.3-2.9-3.2-5-6.5-4.6zm.8 7.8c-1.8.2-3.8-.4-4-2.2-.2-1.7 1.4-3.3 3.4-3.5 2.1-.2 4 1 4.1 2.7.2 1.8-1.7 2.8-3.5 3z" transform="translate(-31.3 26.5) scale(1.566)"/><path fill="url(#u)" d="m106.5 147-.2-.2c-6.5-5.1-12.5-7.7-17.8-7.7-1 0-2 0-2.8.2a15.4 15.4 0 0 0-10 6.6l-1 1.8-.3-2c-.8-5.4-3.5-5.8-3.6-5.8a3 3 0 0 0-.5 0c-3 0-6.9 3.8-7 3.9l-.8 1-.4-1.3c-2-7.7-7.2-7.9-7.4-7.9-7 .6-9.8 3.8-9.8 3.8-3.5 4 .2 8.2.7 8.7l.7.7-1 .5c-9.8 4.2-9.3 7.9-9.3 8 .4 2.5 6.1 5.2 9.7 6.2l1 .3-.7.9c-5.6 7.7-4 11.5-3.5 12.2l.1.3h52.1a12 12 0 0 0 12-12l-.1-.5-.3-.2.3-.3z" transform="translate(-31.3 26.5) scale(1.566)"/><path fill="url(#v)" d="m107.4 143.7-.2-.2v.5l-.3-.2v3l.5.4c1.4 1 4.5 3.6 4.9 7.3.3 3-1.4 6.1-5 9.3l-.4.4-.2.2h.2l.5.3s5.1 2.2 2.7 9.7c0 .1-3.5 11.8-17.8 11.8-.2 0-8.8.4-20.4-6.1l-.3-.2-.2.3s-5.7 5.8-12 5.6c-.1 0-5.7.5-9.3-6.9l-.2-.3h-.4c0 .1-4.3 1.5-6.5-.6a3.7 3.7 0 0 1-.4-.5h-3l.2.3h-.4l.1.2c.5 1.1 2.5 4.7 8.9 3.9.8 1.3 4.5 6.7 11 6.7.2 0 5.7.5 12.6-5.2a49.2 49.2 0 0 0 21.7 5.5c.2 0 13.1 0 18.7-12.5 0 0 3.4-7-1.5-12.3 1.2-1 4.6-4.7 4.3-9.5-.2-4-2.9-7.6-7.8-11z" transform="translate(-31.3 26.5) scale(1.566)"/><path fill="#6082c0" d="M30.8 304.5h-.5v.2l.1.2h.6zM136 251v.6l.5.3v-.6z"/><path fill="url(#w)" d="M41.8 199c-3.2 0-5.3 1.6-5.3 4 0 2.5 2 4 5.3 4 3.2 0 5.3-1.5 5.3-4s-2-4-5.3-4zm0 6c-1.5 0-3.2-.4-3.2-2 0-1.5 1.7-1.8 3.2-1.8 1.5 0 3.2.3 3.2 1.9 0 1.5-1.7 1.8-3.2 1.8z" transform="translate(-31.3 26.5) scale(1.566)"/><g fill="url(#x)" transform="translate(-31.3 26.5) scale(1.566)"><g fill="url(#y)"><g fill="url(#z)"><path fill="url(#A)" d="M191.4 211.8h2.6v9.5h-2.6z"/><path fill="url(#B)" d="M192.7 210.7c-.9 0-1.5-.4-1.5-1 0-.7.7-1.2 1.5-1.2s1.5.5 1.5 1.1c0 .7-.7 1.1-1.5 1.1z"/></g><path fill="url(#C)" d="M126.5 208.5h2.6v12.8h-2.6z"/><path fill="url(#D)" d="M131.7 211.8h2.5v1.1c.7-.9 1.6-1.3 2.8-1.3 2.1 0 3.1 1 3.1 3.2v6.5h-2.5v-5.8c0-1.2-.4-1.8-1.4-1.8-1.2 0-2 .7-2 2v5.6h-2.5v-9.5z"/><path fill="url(#E)" d="M145 221.4c-2 0-2.4-.7-2.4-2.7v-5.1h-1.3v-1.8h1.3v-2.6h2.5v2.6h1.4v1.8h-1.4v5.2c0 .5.1.6.8.6h.6v2h-1.4z"/><path fill="url(#F)" d="M150.1 215.5c.1-1.2.8-2 1.9-2 1.2 0 1.8.8 1.9 2zm3.7 2.9c-.3.7-.8 1-1.7 1-1.2 0-1.9-.7-2-2.2h6.4v-.7c0-3.2-1.7-5-4.6-5-2.7 0-4.4 1.9-4.4 5 0 3.2 1.8 5.1 4.5 5.1 2.2 0 3.8-1.2 4.4-3.2z"/><path fill="url(#G)" d="M158.2 211.8h2.3v1.6c.7-1.3 1.5-1.9 2.8-1.9h.3v2.6h-.8c-1.4 0-2.1.7-2.1 2.2v5h-2.5z"/><path fill="url(#H)" d="M165 211.8h2.5v1.1c.7-.9 1.7-1.3 2.9-1.3 2 0 3 1 3 3.2v6.5H171v-5.8c0-1.2-.4-1.8-1.5-1.8-1.2 0-2 .7-2 2v5.6H165z"/><path fill="url(#I)" d="M181 216.6v1c0 1.2-.8 2-2.2 2-.7 0-1.2-.4-1.2-1 0-.8.4-1.1 1.2-1.3.5-.2 1.3-.2 2.3-.7zm0 3.5.4 1.2h2.6v-.5c-.4-.2-.5-.6-.5-1.3v-5.4c0-1.7-1.4-2.6-4.1-2.6-2.5 0-3.9 1.2-3.9 3v.3h2.4v-.2c0-.7.5-1.2 1.6-1.2 1 0 1.5.3 1.5 1.1 0 1-.7.8-2.6 1-2.2.4-3.2 1.2-3.2 3.1 0 2 1 3 2.8 3 1.4 0 2.5-.5 3-1.5z"/><path fill="url(#J)" d="M188.5 221.4c-2.1 0-2.6-.7-2.6-2.7v-5.1h-1.2v-1.8h1.2v-2.6h2.5v2.6h1.5v1.8h-1.5v5.2c0 .5.2.6.9.6h.6v2h-1.4z"/><path fill="url(#K)" d="M198.3 216.5c0-1.9.8-2.9 2.2-2.9 1.5 0 2.3 1 2.3 3 0 1.8-.8 2.9-2.3 2.9-1.4 0-2.2-1-2.2-3zm-2.6 0c0 3.2 1.9 5.1 4.8 5.1 3 0 4.8-2 4.8-5 0-3.2-1.8-5.1-4.8-5.1s-4.8 1.9-4.8 5z"/><path fill="url(#L)" d="M207 211.8h2.6v1.1c.7-.9 1.6-1.3 2.8-1.3 2.1 0 3.1 1 3.1 3.2v6.5H213v-5.8c0-1.2-.4-1.8-1.5-1.8s-1.9.7-1.9 2v5.6h-2.5z"/><path fill="url(#M)" d="M223.1 216.6v1c0 1.2-.8 2-2.2 2-.8 0-1.3-.4-1.3-1 0-.8.4-1.1 1.2-1.3.5-.2 1.3-.2 2.3-.7zm0 3.5.3 1.2h2.7v-.5c-.5-.2-.6-.6-.6-1.3v-5.4c0-1.7-1.4-2.6-4-2.6-2.5 0-4 1.2-4 3v.3h2.4v-.2c0-.7.6-1.2 1.6-1.2 1.1 0 1.6.3 1.6 1.1 0 1-.7.8-2.7 1-2.2.4-3.2 1.2-3.2 3.1 0 2 1 3 2.9 3 1.4 0 2.4-.5 3-1.5z"/><path fill="url(#N)" d="M227.8 208.5h2.6v12.8h-2.6z"/></g><g fill="url(#O)"><path fill="url(#P)" d="M251.1 240.5c-3.7 0-6-2.5-6-6.8 0-4.4 2.2-6.8 6.2-6.8 3.3 0 5.3 1.7 5.4 4.6h-2.6c-.2-1.4-1.1-2.2-2.8-2.2-2.3 0-3.5 1.5-3.5 4.4 0 2.8 1.3 4.4 3.4 4.4 1.6 0 2.7-.9 3-2.4h2.5c-.1 2.9-2.3 4.8-5.6 4.8z"/><path fill="url(#Q)" d="M260.7 235.4c0-2 .8-3 2.2-3 1.4 0 2.2 1 2.2 3 0 1.9-.8 2.9-2.2 2.9-1.4 0-2.2-1-2.2-3zm-2.6 0c0 3.1 1.8 5 4.8 5s4.8-1.9 4.8-5c0-3.2-1.8-5.1-4.8-5.1s-4.8 2-4.8 5z"/><path fill="url(#R)" d="M269.4 230.6h2.4v1.2c.7-1 1.7-1.4 2.9-1.4 2 0 3 1 3 3.3v6.4h-2.4v-5.7c0-1.3-.4-2-1.5-2s-2 .8-2 2v5.7h-2.4z"/><path fill="url(#S)" d="M282.7 240.2c-2 0-2.5-.7-2.5-2.7v-5h-1.3v-1.9h1.3V228h2.5v2.6h1.4v1.8h-1.4v5.3c0 .5.1.6.8.6h.6v1.9h-1.4z"/><path fill="url(#T)" d="M287.7 234.4c.1-1.3.8-2 1.8-2 1.2 0 1.9.7 1.9 2zm3.7 2.8c-.4.8-1 1-1.8 1-1.2 0-1.8-.7-2-2.2h6.4v-.6c0-3.3-1.7-5.1-4.5-5.1-2.7 0-4.4 2-4.4 5 0 3.2 1.7 5.1 4.4 5.1 2.2 0 3.9-1.2 4.4-3.2z"/><path fill="url(#U)" d="M297.6 237c0 1 .7 1.4 2 1.4 1 0 1.5-.3 1.5-.9 0-.8-.8-.8-2.4-1.2-2.2-.6-3.3-1.2-3.3-2.8 0-2 1.5-3.2 3.9-3.2 2.5 0 4 1.2 4 3.2H301c0-.8-.6-1.2-1.6-1.2s-1.4.2-1.4.8c0 .7.7.8 2.5 1.2 2.2.5 3.3 1.1 3.3 2.8 0 2.2-1.6 3.3-4.4 3.3-2.7 0-4.2-1.2-4.2-3.3h2.5z"/><path fill="url(#V)" d="M308 240.2c-2 0-2.5-.7-2.5-2.7v-5h-1.2v-1.9h1.2V228h2.5v2.6h1.5v1.8H308v5.3c0 .5.2.6.9.6h.6v1.9H308z"/></g><g fill="url(#W)"><path fill="url(#X)" d="M242 221.6c-3.7 0-5.9-2.4-5.9-6.7 0-4.4 2.2-6.8 6.1-6.8 3.3 0 5.2 1.7 5.3 4.6H245c-.2-1.4-1.2-2.2-2.8-2.2-2.2 0-3.4 1.5-3.4 4.4 0 2.8 1.2 4.3 3.3 4.3 1.6 0 2.6-.8 3-2.3h2.5c-.2 2.9-2.4 4.7-5.6 4.7z"/><path fill="url(#Y)" d="M251.4 216.5c0-1.9.9-2.9 2.2-2.9 1.4 0 2.2 1 2.2 3 0 1.8-.8 2.9-2.2 2.9-1.3 0-2.2-1-2.2-3zm-2.5 0c0 3.2 1.8 5.1 4.7 5.1 3 0 4.7-2 4.7-5 0-3.2-1.8-5.1-4.7-5.1-2.9 0-4.7 1.9-4.7 5z"/><path fill="url(#Z)" d="M260 208.5h2.6v12.8H260z"/><path fill="url(#aa)" d="M264.9 208.5h2.5v12.8h-2.5z"/><path fill="url(#ab)" d="M271.7 215.5c0-1.2.7-2 1.8-2s1.8.8 1.8 2zm3.6 2.9c-.3.7-.9 1-1.7 1-1.2 0-1.9-.7-2-2.2h6.3v-.7c0-3.2-1.6-5-4.5-5-2.6 0-4.3 1.9-4.3 5 0 3.2 1.7 5.1 4.4 5.1 2.2 0 3.7-1.2 4.3-3.2z"/><path fill="url(#ac)" d="M281.5 216.4c0-1.8.8-2.8 2-2.8 1.3 0 2 1 2 2.8 0 1.8-.7 2.8-2 2.8-1.2 0-2-1-2-2.8zm-2.2 5.8c.1 1.8 1.6 3 4 3 1.6 0 2.7-.4 3.5-1 1-.8 1.2-1.8 1.2-3.5v-8.9h-2.4v1.1c-.6-1-1.4-1.4-2.7-1.4-2.3 0-3.9 1.9-3.9 5 0 2.9 1.6 4.8 4 4.8 1.2 0 2-.4 2.6-1.4v.9c0 1.7-.5 2.3-2.1 2.3-.9 0-1.3-.3-1.5-1h-2.7z"/><path fill="url(#ad)" d="M300.1 216.6v1c0 1.2-.8 2-2.1 2-.8 0-1.2-.4-1.2-1 0-.8.3-1.1 1.1-1.3.5-.2 1.3-.2 2.2-.7zm0 3.5.3 1.2h2.6v-.5c-.4-.2-.5-.6-.5-1.3v-5.4c0-1.7-1.4-2.6-4-2.6-2.4 0-3.8 1.2-3.8 3v.3h2.3v-.2c0-.7.6-1.2 1.6-1.2s1.5.3 1.5 1.1c0 1-.7.8-2.6 1-2.1.4-3.1 1.2-3.1 3.1 0 2 1 3 2.8 3 1.3 0 2.4-.5 3-1.5z"/><path fill="url(#ae)" d="M307.4 221.4c-2 0-2.5-.7-2.5-2.7v-5.1h-1.2v-1.8h1.2v-2.6h2.4v2.6h1.5v1.8h-1.5v5.2c0 .5.2.6.9.6h.6v2h-1.4z"/><path fill="url(#af)" d="M312.3 215.5c.1-1.2.7-2 1.8-2 1.2 0 1.8.8 1.8 2zm3.6 2.9c-.3.7-.9 1-1.7 1-1.2 0-1.8-.7-2-2.2h6.3v-.7c0-3.2-1.6-5-4.4-5-2.7 0-4.4 1.9-4.4 5 0 3.2 1.8 5.1 4.4 5.1 2.2 0 3.8-1.2 4.3-3.2z"/><g fill="url(#ag)"><path fill="url(#ah)" d="M291.4 210.7c-.8 0-1.4-.4-1.4-1 0-.7.6-1.2 1.4-1.2s1.5.5 1.5 1.1c0 .7-.6 1.1-1.5 1.1z"/><path fill="url(#ai)" d="M290.2 211.8h2.5v9.5h-2.5z"/></g></g><g fill="url(#aj)"><path fill="url(#ak)" d="M129.1 233.2v-3.7h2.7c1.2 0 1.8.7 1.8 1.9 0 1.3-.6 1.8-2 1.8h-2.5zm0 2.3h3.2c2.6 0 4-1.5 4-4.1 0-2.7-1.4-4.1-4.1-4.1h-5.7V240h2.6v-4.6z"/><path fill="url(#al)" d="M138 230.6h2.4v1.7c.7-1.3 1.5-2 2.7-2h.4v2.7h-.8c-1.4 0-2 .7-2 2v5.1H138z"/><path fill="url(#am)" d="M147 235.4c0-2 .8-3 2.2-3 1.4 0 2.2 1 2.2 3 0 1.9-.8 2.9-2.2 2.9-1.4 0-2.2-1-2.2-3zm-2.6 0c0 3.1 1.8 5 4.8 5s4.7-1.9 4.7-5c0-3.2-1.8-5.1-4.7-5.1-3 0-4.8 2-4.8 5z"/><path fill="url(#an)" d="M157.7 235.2c0-1.7.8-2.7 2-2.7 1.3 0 2 1 2 2.7 0 1.8-.6 2.8-2 2.8-1.3 0-2-1-2-2.8zm-2.3 5.8c.1 1.9 1.6 3 4.2 3 1.5 0 2.7-.4 3.4-1 1-.7 1.2-1.8 1.2-3.5v-8.9h-2.4v1.2c-.5-1-1.4-1.5-2.7-1.5-2.4 0-4 1.9-4 5 0 3 1.6 4.8 4 4.8 1.3 0 2.2-.4 2.7-1.3v.8c0 1.7-.4 2.4-2.1 2.4-.9 0-1.4-.4-1.5-1z"/><path fill="url(#ao)" d="M166.4 230.6h2.4v1.7c.6-1.3 1.5-2 2.7-2h.3v2.7h-.8c-1.3 0-2 .7-2 2v5.1h-2.6v-9.5z"/><path fill="url(#ap)" d="M178.6 235.5v.8c0 1.4-.9 2.2-2.2 2.2-.8 0-1.3-.4-1.3-1.1 0-.8.4-1 1.2-1.3.5-.1 1.3-.2 2.3-.6zm0 3.4c0 .5.1.9.3 1.2h2.6v-.4c-.4-.2-.5-.6-.5-1.3V233c0-1.7-1.4-2.7-4-2.7-2.5 0-4 1.2-4 3.1v.2h2.4v-.1c0-.8.6-1.2 1.6-1.2s1.5.3 1.5 1c0 1-.6.8-2.6 1.1-2.2.4-3.2 1.2-3.2 3 0 2 1 3 2.9 3 1.3 0 2.4-.5 3-1.5z"/><path fill="url(#aq)" d="M183.2 230.6h2.4v1c.7-.8 1.5-1.2 2.6-1.2s2 .4 2.6 1.4c.6-1 1.5-1.4 2.7-1.4 1.8 0 3 1.1 3 3v6.7h-2.4v-6c0-1-.6-1.5-1.4-1.5-1 0-1.6.6-1.6 1.8v5.7h-2.5v-6c0-1-.5-1.5-1.4-1.5-1 0-1.5.6-1.5 1.8v5.7h-2.5z"/><path fill="url(#ar)" d="M198.7 230.6h2.4v1c.7-.8 1.5-1.2 2.6-1.2 1.2 0 2 .4 2.6 1.4a3 3 0 0 1 2.7-1.4c1.8 0 3 1.1 3 3v6.7h-2.4v-6c0-1-.6-1.5-1.4-1.5-1 0-1.6.6-1.6 1.8v5.7H204v-6c0-1-.5-1.5-1.3-1.5-1 0-1.6.6-1.6 1.8v5.7h-2.5v-9.5z"/><path fill="url(#as)" d="M219 230.6h2.5v1.2c.7-1 1.6-1.4 2.8-1.4 2.1 0 3.1 1 3.1 3.3v6.4H225v-5.7c0-1.3-.4-2-1.4-2-1.2 0-2 .8-2 2v5.7H219z"/><path fill="url(#at)" d="M231.6 235.2c0-1.7.8-2.7 2-2.7 1.4 0 2.1 1 2.1 2.7 0 1.8-.7 2.8-2 2.8s-2-1-2-2.8zm-2.2 5.8c0 1.9 1.6 3 4 3 1.6 0 2.8-.4 3.5-1 1-.7 1.3-1.8 1.3-3.5v-8.9h-2.4v1.2a3 3 0 0 0-2.7-1.5c-2.4 0-4 1.9-4 5 0 3 1.6 4.8 4 4.8 1.3 0 2-.4 2.6-1.3v.8c0 1.7-.4 2.4-2 2.4-1 0-1.4-.4-1.6-1z"/><g fill="url(#au)"><path fill="url(#av)" d="M215.5 229.5c-.8 0-1.4-.4-1.4-1 0-.7.6-1.2 1.4-1.2s1.5.5 1.5 1.2c0 .6-.6 1-1.5 1z"/><path fill="url(#aw)" d="M214.3 230.6h2.5v9.5h-2.5z"/></g></g></g><path fill="url(#ax)" d="M28 213h4.7v26.2H28z" transform="translate(-31.3 26.5) scale(1.566)"/><path fill="url(#ay)" d="M57 214.2c2 1.5 3.1 4 3.5 7.5H56c-.3-1.6-1-3-2-4-.9-1.1-2.5-1.7-4.7-1.7-3 0-5 1.4-6.3 4.2-.9 1.7-1.3 4-1.3 6.6 0 2.6.6 4.8 1.8 6.6 1.2 1.8 3 2.7 5.5 2.7 2 0 3.5-.5 4.6-1.7A9 9 0 0 0 56 230h4.5c-.5 3.4-1.8 6-3.9 7.6-2 1.6-4.7 2.4-8 2.4-3.6 0-6.4-1.2-8.6-3.7a14 14 0 0 1-3.2-9.5c0-4.6 1.1-8.2 3.5-10.8a12 12 0 0 1 9-3.8c3.2 0 5.7.7 7.7 2.1z" transform="translate(-31.3 26.5) scale(1.566)"/><path fill="url(#az)" d="M64.8 213h4.5v3.4c1-1.1 2-2 3.1-2.7 1.6-1 3.4-1.5 5.6-1.5 3.1 0 5.8 1.1 8 3.4s3.3 5.6 3.3 9.8c0 5.8-1.6 9.9-4.8 12.3-2 1.6-4.3 2.4-7 2.4a10 10 0 0 1-5.3-1.3c-.8-.5-1.7-1.4-2.7-2.6v13.5h-4.7zm17.5 20.6c1.5-1.7 2.2-4.3 2.2-7.8 0-2-.3-3.9-1-5.4a6.6 6.6 0 0 0-6.6-4.3 6.6 6.6 0 0 0-6.7 4.6 17.3 17.3 0 0 0 0 11.4c1.2 2.7 3.5 4.1 6.7 4.1 2.2 0 4-.9 5.4-2.6z" transform="translate(-31.3 26.5) scale(1.566)"/><path fill="url(#aA)" d="M113 214.2c2 1.5 3.2 4 3.6 7.5H112c-.3-1.6-.9-3-1.9-4-1-1.1-2.5-1.7-4.7-1.7-3 0-5.1 1.4-6.4 4.2-.8 1.7-1.2 4-1.2 6.6 0 2.6.6 4.8 1.7 6.6 1.2 1.8 3 2.7 5.6 2.7 2 0 3.4-.5 4.6-1.7a9 9 0 0 0 2.3-4.5h4.6c-.6 3.4-1.9 6-4 7.6-2 1.6-4.7 2.4-7.9 2.4a11 11 0 0 1-8.7-3.7 14 14 0 0 1-3.2-9.5c0-4.6 1.2-8.2 3.5-10.8a12 12 0 0 1 9-3.8c3.2 0 5.8.7 7.7 2.1z" transform="translate(-31.3 26.5) scale(1.566)"/><path fill="url(#aB)" d="M30.3 208.5c-2.2 0-3.9-1.2-3.9-2.8 0-1.7 1.7-3 4-3 2.1 0 3.8 1.3 3.8 3 0 1.6-1.6 2.8-3.9 2.8z" transform="translate(-31.3 26.5) scale(1.566)"/><path fill="#6082c0" d="M31.1 304.3h-.4v.2l.1.2h.5zm105.3-53.5v.7l.4.3v-.7z"/><g fill="url(#aC)" transform="translate(-31.3 26.5) scale(1.566)"><path fill="url(#aD)" d="M29.2 89.5c0-.6.3-1.2.7-1.8.5-.5 1.1-.8 2-.8a2.7 2.7 0 0 1 .6 0v.1-2a18.8 18.8 0 0 0-.4 0 3 3 0 0 0-.2 0 3 3 0 0 0-1.9.8 5 5 0 0 0-.9 1v-1.6h-1.8v10.1h2v-5.8z"/><path fill="url(#aE)" d="M37.5 95.7c.6 0 1 0 1.5-.2a4.2 4.2 0 0 0 2.9-2.1c.2-.5.4-.9.4-1.3h-1.8a2.8 2.8 0 0 1-.7 1.1c-.5.6-1.2.9-2.1.9-1 0-1.6-.3-2-.9a4 4 0 0 1-.8-2.3h7.6c0-1 0-1.8-.2-2.3a4.4 4.4 0 0 0-.7-1.8 4 4 0 0 0-1.6-1.3 5 5 0 0 0-2.2-.5c-1.5 0-2.7.5-3.6 1.5-.9 1-1.4 2.4-1.4 4s.5 2.9 1.4 3.8c1 1 2 1.4 3.3 1.4zM35 89.4c0-.8.4-1.4.9-2 .5-.5 1.1-.8 2-.8 1 0 1.8.4 2.2 1.2.3.4.4 1 .5 1.6z"/><path fill="url(#aF)" d="M52.2 97.5c.4-.8.6-1.8.6-3v-9.2H51v1.1a4.5 4.5 0 0 0-.9-.7A4 4 0 0 0 48 85a4 4 0 0 0-3.1 1.4c-.9 1-1.3 2.3-1.3 4 0 1.7.4 3 1.3 3.8a4.4 4.4 0 0 0 3 1.1c.8 0 1.5 0 2-.3a3.4 3.4 0 0 0 1.1-1c0 1.2 0 2-.3 2.6-.4.8-1.3 1.3-2.6 1.3-.8 0-1.4-.2-1.8-.6-.2-.2-.4-.5-.4-1h-2c.1 1.1.5 1.9 1.3 2.4s1.8.7 2.9.7c2 0 3.5-.7 4.2-2zM51 90.2a5 5 0 0 1-.4 2.1C50 93.4 49.2 94 48 94c-.8 0-1.4-.3-1.8-.8-.5-.6-.7-1.4-.7-2.5 0-1 0-1.7.3-2.3.5-1 1.3-1.6 2.5-1.6.8 0 1.4.3 2 .9.4.5.7 1.4.7 2.6z"/><path fill="url(#aG)" d="M54.8 85.3h2v10h-2z"/><path fill="url(#aH)" d="M63.2 85c-1.5 0-2.7.5-3.6 1.5-1 1-1.4 2.3-1.4 4 0 1.6.5 2.8 1.3 3.8.9 1 2 1.4 3.5 1.4 1.7 0 3-.6 3.8-1.6.9-1 1.3-2.4 1.3-4 0-1.7-.5-3-1.4-3.8a5 5 0 0 0-3.5-1.3zm2.2 7.9c-.4.8-1.1 1.2-2.3 1.2-1 0-1.7-.4-2.2-1-.5-.7-.7-1.6-.7-2.6 0-1.1.2-2 .7-2.8.5-.7 1.2-1.1 2.3-1.1 1.1 0 2 .4 2.4 1.3.3.6.5 1.3.5 2.2 0 1-.2 2-.7 2.8z"/><path fill="url(#aI)" d="M74.8 85a4.5 4.5 0 0 0-1.9.4c-.5.2-1 .6-1.4 1.1v-1.3h-1.9v10.1h2v-6.7l.6-1c.4-.4.8-.7 1.3-.8l1-.1c.8 0 1.3.3 1.6.9.2.3.3.8.3 1.4v6.3h2V89c0-1-.2-1.8-.5-2.4-.6-1-1.6-1.5-3.1-1.5z"/><path fill="url(#aJ)" d="M89.4 94h-.7a.6.6 0 0 1 0-.5v-5.7c0-1-.5-1.7-1.2-2.1a6 6 0 0 0-3-.7c-1.1 0-2 .2-2.9.7-.8.5-1.3 1.4-1.3 2.7h1.8c0-.5.2-.9.4-1.1.4-.5 1-.7 1.9-.7.8 0 1.4.1 1.8.4.4.2.6.6.6 1.1l-.1.6c-.2.3-.4.4-.8.5l-2.8.3c-1 .1-1.8.4-2.4 1-.6.5-1 1.2-1 2.1 0 1 .4 1.6 1 2.2.6.6 1.5.9 2.4.9a5 5 0 0 0 3.7-1.6l.3.8c.3.4.8.6 1.4.6h.6l.6-.1h.1V94h-.1a5 5 0 0 1-.3 0zm-2.7-3.7v1.2c0 1-.4 1.7-1.4 2.2a4.1 4.1 0 0 1-1.8.4 2 2 0 0 1-1.2-.4c-.4-.3-.5-.6-.5-1 0-.7.2-1.1.7-1.4a4 4 0 0 1 1.4-.4l1-.1a7.5 7.5 0 0 0 1.8-.5z"/><path fill="url(#aK)" d="M91 81.6h2v13.7h-2z"/><path fill="url(#aL)" d="M102.2 90.3c-.4-.3-1.3-.6-2.6-.9l-1.2-.2-1.1-.4c-.5-.3-.7-.6-.7-1s.2-.6.5-.9c.3-.2.8-.3 1.5-.3 1 0 1.7.2 2 .6.3.3.5.6.5 1h1.8c0-.7-.2-1.3-.7-1.9-.7-.9-1.9-1.3-3.5-1.3-1.2 0-2.2.3-3 .9-.7.6-1 1.4-1 2.3 0 .8.4 1.5 1.2 2 .4.2 1 .5 2 .7l1.4.3 1.5.5c.4.2.6.5.6.9 0 .5-.3.9-.8 1.1-.4.3-1 .4-1.7.4-1 0-1.8-.2-2.2-.7-.3-.3-.4-.7-.5-1.3h-1.8a4 4 0 0 0 1 2.6c.7.7 1.9 1 3.4 1s2.6-.3 3.4-1a3 3 0 0 0 1-2.3c0-1-.3-1.7-1-2.1z"/><path fill="url(#aM)" d="M55.8 83.7c-.8 0-1.4-.5-1.4-1 0-.7.6-1.2 1.4-1.2s1.4.5 1.4 1.1c0 .6-.6 1-1.4 1"/></g><path fill="none" d="M221.8 15.9h205.3v190.7H221.8z"/><path fill="#6082c0" d="M378 .2v.3h.2V.4z"/><path fill="#6082c0" d="M378 0v.3h.2V.2zm-39.7 20.5h-.2v.1h.2zM378.2.2v.2l.2.1V.3z"/><text xml:space="preserve" x="258" y="54.6" fill="url(#aN)" stroke-width=".4" font-family="DejaVu Serif" font-size="17.1" font-weight="400" letter-spacing="0" style="line-height:1.25;-inkscape-font-specification:&quot;DejaVu Serif&quot;" transform="translate(-51.5 13) scale(1.633)" word-spacing="0"><tspan x="258" y="54.6" font-family="arial" style="-inkscape-font-specification:arial">2022</tspan></text><text xml:space="preserve" x="259.1" y="53.7" fill="url(#aO)" stroke-width=".4" font-family="DejaVu Serif" font-size="16.1" font-weight="400" letter-spacing="0" style="line-height:1.25;-inkscape-font-specification:&quot;DejaVu Serif&quot;" transform="matrix(1.74 0 0 1.74 -80.6 34.8)" word-spacing="0"><tspan x="259.1" y="53.7" font-family="arial" style="-inkscape-font-specification:arial">2023</tspan></text></svg>